<svg
  width="48"
  height="48"
  viewBox="0 0 120 120"
  fill="none"
  xmlns="http://www.w3.org/2000/svg"
>
  <style>
    path { fill: #14141F }
    @media (prefers-color-scheme:dark) { path { fill: #fff } }
  </style>
  <path
      fill-rule="evenodd"
      clip-rule="evenodd"
      d="M68.04 31.56H51.96L48.768 44.736C52.584 49.008 55.848 53.736 58.512 58.872L59.544 54.6H60.456L61.488 58.872C64.152 53.736 67.416 49.008 71.232 44.736L68.04 31.56Z"
    />
    <path
      fill-rule="evenodd"
      clip-rule="evenodd"
      d="M93.312 10.08L88.8 18.696C90.456 19.872 92.064 21.12 93.552 22.488L91.728 29.088C96.72 26.616 102.072 24.72 107.664 23.544C103.656 18.312 98.808 13.752 93.312 10.08Z"
    />
    <path
      fill-rule="evenodd"
      clip-rule="evenodd"
      d="M26.448 22.488C27.936 21.12 29.544 19.872 31.2 18.696L26.688 10.08C21.192 13.752 16.344 18.312 12.336 23.544C17.928 24.72 23.28 26.616 28.272 29.088L26.448 22.488Z"
    />
    <path
      fill-rule="evenodd"
      clip-rule="evenodd"
      d="M107.352 42.84L113.064 31.944C111.504 28.992 109.68 26.184 107.664 23.544C102.072 24.72 96.72 26.616 91.728 29.088L78.768 75.84L71.232 44.736C67.416 49.008 64.152 53.736 61.488 58.872L69.768 93.072H87.336L103.512 34.728V34.656C105.024 37.248 106.32 39.984 107.352 42.84Z"
    />
    <path
      fill-rule="evenodd"
      clip-rule="evenodd"
      d="M41.232 75.84L28.272 29.088C23.28 26.616 17.928 24.72 12.336 23.544C10.32 26.184 8.496 28.992 6.936 31.944L12.648 42.84C13.68 39.984 14.976 37.248 16.488 34.656V34.728L32.664 93.072H50.232L58.512 58.872C55.848 53.736 52.584 49.008 48.768 44.736L41.232 75.84Z"
    />
    <path
      fill-rule="evenodd"
      clip-rule="evenodd"
      d="M57.648 0.048C57.824 0.048 58 0.04 58.176 0.024C58.784 0.008 59.392 0 60 0C60.544 0 61.088 0.008 61.632 0.024C60.264 3.144 59.088 6.36 58.176 9.696C58.128 9.712 58.072 9.72 58.008 9.72C57.64 9.736 57.28 9.752 56.928 9.768C56.768 9.784 56.608 9.792 56.448 9.792C56.032 9.824 55.616 9.856 55.2 9.888C55.104 9.904 55.016 9.912 54.936 9.912C54.44 9.976 53.936 10.04 53.424 10.104C53.328 10.12 53.224 10.136 53.112 10.152C52.712 10.2 52.32 10.256 51.936 10.32C51.792 10.336 51.656 10.36 51.528 10.392C51.128 10.456 50.728 10.528 50.328 10.608C50.232 10.624 50.136 10.64 50.04 10.656C49.544 10.752 49.04 10.864 48.528 10.992C48.528 10.992 48.52 10.992 48.504 10.992C48.024 11.104 47.552 11.224 47.088 11.352C46.992 11.368 46.896 11.392 46.8 11.424C46.384 11.536 45.976 11.656 45.576 11.784C45.496 11.8 45.416 11.824 45.336 11.856C44.344 12.144 43.376 12.464 42.432 12.816C42.384 12.848 42.336 12.872 42.288 12.888C41.856 13.048 41.424 13.216 40.992 13.392C40.928 13.408 40.872 13.432 40.824 13.464C39.4 14.056 38.008 14.704 36.648 15.408C36.6 15.424 36.56 15.448 36.528 15.48C36.08 15.704 35.64 15.944 35.208 16.2L30.528 7.728C31.072 7.424 31.616 7.128 32.16 6.84C32.176 6.84 32.192 6.832 32.208 6.816C33.84 5.968 35.512 5.184 37.224 4.464C37.288 4.448 37.344 4.432 37.392 4.416C37.936 4.192 38.488 3.976 39.048 3.768C39.064 3.768 39.072 3.76 39.072 3.744C40.224 3.328 41.392 2.936 42.576 2.568C42.656 2.552 42.744 2.528 42.84 2.496C43.336 2.352 43.832 2.208 44.328 2.064C44.424 2.048 44.528 2.024 44.64 1.992C45.792 1.688 46.968 1.416 48.168 1.176C48.28 1.144 48.392 1.12 48.504 1.104C48.984 1.008 49.456 0.92 49.92 0.84C50.08 0.824 50.24 0.8 50.4 0.768C50.88 0.688 51.36 0.616 51.84 0.552C51.952 0.536 52.072 0.52 52.2 0.504C52.792 0.424 53.384 0.352 53.976 0.288C54.088 0.288 54.2 0.28 54.312 0.264C54.792 0.216 55.28 0.176 55.776 0.144C55.968 0.128 56.152 0.12 56.328 0.12C56.776 0.088 57.216 0.064 57.648 0.048ZM9.672 60C9.672 59.52 9.68 59.048 9.696 58.584C9.696 58.44 9.696 58.304 9.696 58.176C9.712 57.84 9.728 57.504 9.744 57.168C9.76 57.008 9.776 56.856 9.792 56.712C9.808 56.392 9.824 56.064 9.84 55.728C9.856 55.584 9.872 55.448 9.888 55.32C9.92 54.968 9.96 54.616 10.008 54.264C10.008 54.152 10.016 54.04 10.032 53.928C10.08 53.528 10.136 53.128 10.2 52.728C10.2 52.68 10.208 52.632 10.224 52.584C10.432 51.144 10.704 49.728 11.04 48.336L4.656 36.768C3.528 39.456 2.592 42.216 1.872 45.096C1.744 45.56 1.624 46.032 1.512 46.512C1.512 46.528 1.512 46.544 1.512 46.56C1.4 47.024 1.296 47.496 1.2 47.976C1.2 48.008 1.2 48.032 1.2 48.048C1.104 48.512 1.016 48.976 0.936 49.44C0.92 49.488 0.912 49.544 0.912 49.608C0.832 50.04 0.76 50.472 0.696 50.904C0.68 51 0.664 51.096 0.648 51.192C0.584 51.592 0.528 51.992 0.48 52.392C0.464 52.52 0.448 52.64 0.432 52.752C0.384 53.136 0.344 53.512 0.312 53.88C0.296 54.04 0.28 54.192 0.264 54.336C0.232 54.688 0.2 55.04 0.168 55.392C0.152 55.6 0.144 55.808 0.144 56.016C0.112 56.32 0.088 56.624 0.072 56.928C0.072 57.184 0.064 57.448 0.048 57.72C0.032 57.96 0.024 58.208 0.024 58.464C0.008 58.976 0 59.488 0 60C0 74.136 4.896 87.144 13.08 97.392C15.072 94.776 17.232 92.304 19.56 89.976C13.344 81.6 9.672 71.232 9.672 60Z"
    />
    <path
      fill-rule="evenodd"
      clip-rule="evenodd"
      d="M116.064 81.384C113.376 79.512 110.568 77.808 107.64 76.272C109.392 71.16 110.328 65.688 110.328 60C110.328 59.52 110.32 59.048 110.304 58.584C110.304 58.44 110.304 58.304 110.304 58.176C110.288 57.84 110.272 57.504 110.256 57.168C110.24 57.008 110.224 56.856 110.208 56.712C110.192 56.392 110.176 56.064 110.16 55.728C110.144 55.584 110.128 55.448 110.112 55.32C110.08 54.968 110.04 54.616 109.992 54.264C109.992 54.152 109.984 54.04 109.968 53.928C109.92 53.528 109.864 53.128 109.8 52.728C109.8 52.68 109.792 52.632 109.776 52.584C109.568 51.144 109.296 49.728 108.96 48.336L115.344 36.768C116.472 39.456 117.408 42.216 118.128 45.096C118.256 45.56 118.376 46.032 118.488 46.512C118.488 46.528 118.488 46.544 118.488 46.56C118.6 47.024 118.704 47.496 118.8 47.976C118.8 48.008 118.8 48.032 118.8 48.048C118.896 48.512 118.984 48.976 119.064 49.44C119.08 49.488 119.088 49.544 119.088 49.608C119.168 50.04 119.24 50.472 119.304 50.904C119.32 51 119.336 51.096 119.352 51.192C119.416 51.592 119.472 51.992 119.52 52.392C119.536 52.52 119.552 52.64 119.568 52.752C119.616 53.136 119.656 53.512 119.688 53.88C119.704 54.04 119.72 54.192 119.736 54.336C119.768 54.688 119.8 55.04 119.832 55.392C119.848 55.6 119.856 55.808 119.856 56.016C119.888 56.32 119.912 56.624 119.928 56.928C119.928 57.184 119.936 57.448 119.952 57.72C119.968 57.96 119.976 58.208 119.976 58.464C119.992 58.976 120 59.488 120 60C120 67.536 118.608 74.736 116.064 81.384ZM58.464 9.696C58.976 9.68 59.488 9.672 60 9.672C60.512 9.672 61.024 9.68 61.536 9.696C61.68 9.696 61.832 9.704 61.992 9.72C62.36 9.736 62.72 9.752 63.072 9.768C63.232 9.784 63.392 9.792 63.552 9.792C63.968 9.824 64.384 9.856 64.8 9.888C64.896 9.904 64.984 9.912 65.064 9.912C65.56 9.976 66.064 10.04 66.576 10.104C66.672 10.12 66.776 10.136 66.888 10.152C67.288 10.2 67.68 10.256 68.064 10.32C68.208 10.336 68.344 10.36 68.472 10.392C68.872 10.456 69.272 10.528 69.672 10.608C69.768 10.624 69.864 10.64 69.96 10.656C70.456 10.752 70.96 10.864 71.472 10.992C71.472 10.992 71.48 10.992 71.496 10.992C71.976 11.104 72.448 11.224 72.912 11.352C73.008 11.368 73.104 11.392 73.2 11.424C73.616 11.536 74.024 11.656 74.424 11.784C74.504 11.8 74.584 11.824 74.664 11.856C75.656 12.144 76.624 12.464 77.568 12.816C77.616 12.848 77.664 12.872 77.712 12.888C78.144 13.048 78.576 13.216 79.008 13.392C79.072 13.408 79.128 13.432 79.176 13.464C80.6 14.056 81.992 14.704 83.352 15.408C83.4 15.424 83.44 15.448 83.472 15.48C83.92 15.704 84.36 15.944 84.792 16.2L89.472 7.728C88.928 7.424 88.384 7.128 87.84 6.84C87.824 6.84 87.808 6.832 87.792 6.816C86.16 5.968 84.488 5.184 82.776 4.464C82.712 4.448 82.656 4.432 82.608 4.416C82.064 4.192 81.512 3.976 80.952 3.768C80.936 3.768 80.928 3.76 80.928 3.744C79.776 3.328 78.608 2.936 77.424 2.568C77.344 2.552 77.256 2.528 77.16 2.496C76.664 2.352 76.168 2.208 75.672 2.064C75.576 2.048 75.472 2.024 75.36 1.992C74.208 1.688 73.032 1.416 71.832 1.176C71.72 1.144 71.608 1.12 71.496 1.104C71.016 1.008 70.544 0.92 70.08 0.84C69.92 0.824 69.76 0.8 69.6 0.768C69.12 0.688 68.64 0.616 68.16 0.552C68.048 0.536 67.928 0.52 67.8 0.504C67.208 0.424 66.616 0.352 66.024 0.288C65.912 0.288 65.8 0.28 65.688 0.264C65.208 0.216 64.72 0.176 64.224 0.144C64.032 0.128 63.848 0.12 63.672 0.12C63.224 0.088 62.784 0.064 62.352 0.048C62.176 0.048 62 0.04 61.824 0.024C61.76 0.024 61.696 0.024 61.632 0.024C60.264 3.144 59.088 6.36 58.176 9.696C58.272 9.696 58.368 9.696 58.464 9.696Z"
    />
    <path
      fill-rule="evenodd"
      clip-rule="evenodd"
      d="M116.064 81.384C113.376 79.512 110.568 77.808 107.64 76.272C100.872 96.072 82.104 110.328 60 110.328C43.44 110.328 28.728 102.312 19.56 89.976C17.232 92.304 15.072 94.776 13.08 97.392C24.072 111.168 40.992 120 60 120C85.608 120 107.448 103.968 116.064 81.384Z"
    />
</svg>
