<svg width="48" height="48" viewBox="0 0 120 120" fill="none" xmlns="http://www.w3.org/2000/svg">
<path d="M62.3847 12.5401C63.1208 12.5301 63.8594 12.324 64.2461 12.8966C68.4354 19.1021 77.0651 25.5928 81.1292 31.5596C86.5374 37.7308 93.9544 44.2237 99.0149 50.2027C98.9889 57.5578 98.8291 64.9118 98.536 72.2625C98.4399 75.2685 98.0762 84.1545 98.5955 86.7516C98.7875 87.2418 98.86 87.8072 98.9604 88.3284C96.832 89.9146 62.6828 90.3053 57.4363 90.2954C49.839 84.527 42.3377 78.6587 34.935 72.6925C34.1468 72.1845 33.7298 71.618 33.1306 70.9382C28.5484 60.9535 23.903 50.9914 19.195 41.053C27.0935 35.3919 53.8511 15.8888 62.3847 12.5401Z" fill="#18A8B3"/>
<path d="M61.3728 31.5712L81.1292 31.5596C86.5374 37.7308 93.9544 44.2237 99.0149 50.2027C98.9889 57.5578 98.8291 64.9118 98.536 72.2625C98.4399 75.2685 98.0762 84.1545 98.5955 86.7516C94.5932 84.773 80.4427 71.859 76.241 68.2544C74.335 65.7065 68.9435 60.959 66.3101 58.5211C59.83 52.5035 53.2941 46.534 46.7024 40.6136C44.3094 38.4565 39.7377 34.5584 37.9767 32.3173C38.8337 31.7685 41.2626 31.6911 42.5007 31.5629L61.3728 31.5712Z" fill="#0B62A8"/>
<path d="M34.935 72.6925C36.9835 69.714 48.5731 67.836 52.5648 67.2419C60.7724 66.0205 68.4522 65.0538 76.241 68.2544C80.4427 71.859 94.5932 84.773 98.5955 86.7516C98.7875 87.2418 98.86 87.8072 98.9604 88.3284C96.832 89.9146 62.6828 90.3053 57.4363 90.2954C49.839 84.527 42.3377 78.6587 34.935 72.6925Z" fill="#26D8D0"/>
<path d="M62.3847 12.5401C63.1208 12.5301 63.8594 12.324 64.2461 12.8966C68.4354 19.1021 77.0651 25.5928 81.1292 31.5596L61.3728 31.5712L42.5007 31.5629C41.148 31.5214 35.8533 31.2937 34.8643 32.0327C32.1237 34.0776 32.0816 39.5293 32.0227 42.4154C31.9471 46.1498 32.0041 49.8854 32.1937 53.6166C32.3833 56.9769 34.1146 68.6214 33.1306 70.9382C28.5484 60.9535 23.903 50.9914 19.195 41.053C27.0935 35.3919 53.8511 15.8888 62.3847 12.5401Z" fill="#26D8D0"/>
<path d="M62.3847 12.5401C63.1208 12.5301 63.8594 12.324 64.2461 12.8966C68.4354 19.1021 77.0651 25.5928 81.1292 31.5596L61.3728 31.5712C61.4348 27.9002 63.2925 14.5806 62.3847 12.5401Z" fill="#18A8B3"/>
<path d="M104.15 62.2943C109.293 62.1688 114.558 62.2451 119.714 62.2694C119.758 63.5422 119.894 68.9237 119.778 69.9296C119.069 76.113 121.096 116.61 119.074 119.488C116.826 120.933 107.083 118.911 103.879 118.436C95.742 117.178 87.5883 116.006 79.4203 114.918L57.2504 111.686C56.9171 106.711 57.1036 99.2809 57.2182 94.3466C61.3797 93.9193 69.8965 93.9912 74.3498 93.8945L103.589 93.2064C103.618 82.9005 103.805 72.5957 104.15 62.2943Z" fill="#1177D2"/>
<path d="M0.177254 62.1644L23.8274 62.2511C25.511 65.6977 27.5192 71.5545 30.3032 74.2582C36.6197 80.3919 44.9067 85.9734 51.8491 91.6047C51.6768 97.9263 52.0443 104.387 51.6192 110.687C47.7688 111 4.63861 104.756 0.918954 103.193C-0.428128 100.57 0.0731557 67.4911 0.177254 62.1644Z" fill="#0B62A8"/>
<path d="M116.506 0.112447C117.921 -0.190423 118.463 0.142297 119.473 0.825413C120.34 3.82316 119.998 52.9119 119.231 56.831C117.156 57.8811 107.048 57.303 104.071 57.225C104.036 54.2173 103.968 51.6805 103.72 48.6623C101.979 46.4273 96.309 40.896 94.183 38.7168C90.0315 34.6104 69.0799 14.0202 68.1058 10.352L68.6721 9.59207C73.9824 6.9519 108.311 1.51018 116.506 0.112447Z" fill="#1177D2"/>
<path d="M46.3046 13.3177L47.7608 13.3437L48.3066 13.9008C46.9589 17.1384 18.3468 33.9278 14.989 38.231C12.9634 40.8264 20.2503 54.1162 21.6234 57.3323L11.2743 57.3345L0.345178 57.2411C-0.0340378 53.3723 0.221247 47.625 0.239836 43.6092L0.193366 22.2982C3.33429 21.2973 10.9012 20.1726 14.6005 19.4591C25.1274 17.4297 35.8855 15.7832 46.3046 13.3177Z" fill="#0B62A8"/>
</svg>
